<svg xmlns="http://www.w3.org/2000/svg" xmlns:xlink="http://www.w3.org/1999/xlink" version="1.1" id="Layer_1" x="0px" y="0px" viewBox="0 0 164 164" style="enable-background:new 0 0 164 164;" xml:space="preserve" width="495" height="495">
<style type="text/css">
	.st0{fill:#FFFFFF;}
</style>
<g>
	<path class="st0" d="M82,0C36.8,0,0,36.8,0,82s36.8,82,82,82s82-36.8,82-82C164.1,36.9,127.3,0,82,0z M82,158.7   c-42.2,0-76.6-34.4-76.6-76.6S39.8,5.5,82,5.5s76.6,34.4,76.6,76.6S124.3,158.7,82,158.7z" style="stroke-dasharray: 997, 1001; stroke-dashoffset: 0;" stroke="#FFFFFF" fill="#FFFFFF" stroke-width="0.4px"></path>
	<g>
		<path class="st0" d="M107.8,114c-1.1-0.7-1.8-1.4-2.1-2c-0.3-1.1-0.5-3.8-0.5-7.9c0-2.7,0-5,0.1-7.1s0.1-3.3,0.1-3.7V79.6    c0-10.7-0.5-18-1.6-21.6c-1.1-3.7-3.5-6.9-7.1-9.7c-3.6-2.7-8-4.1-13.1-4.1c-2.4,0-4.6,0.2-6.5,0.7c-3,0.7-6.4,1.9-10.3,3.6    c-3.8,1.7-7.6,4-11.3,6.7c-0.6,0.5-1.2,0.9-1.8,1.3v-6.7c0-1.2-0.1-3.3-0.3-6.1v-0.5l-3.9-0.1l-0.1,0.3c-2.3,4.6-5.2,8.3-8.6,10.9    c-2.3,1.9-5.6,3.4-10,4.6L30.4,59v4.1l0.4,0.1c4.3,0.6,7.2,1.8,8.8,3.4c0.9,1,1.3,3.3,1.3,6.9l0.2,27.8c0,1.8,0,3.4-0.1,4.6    l-0.2,3.3c0,3-0.5,4.2-1,4.6s-2,1.1-6.6,1.8c-2,0.3-3.8,0.7-5.3,1.1l-0.3,0.1l-0.1,0.3c-0.2,0.8-0.3,1.5-0.3,2l0.2,1.6h2.7    c1.2,0,4.1,0,8.6-0.1l20.1,0.3h10l0.1-2.4l-0.1-0.1c-0.5-1-1.4-1.7-2.8-2.1c-0.6-0.1-1.8-0.4-3.7-1c-1.9-0.5-3.6-1-5.1-1.3    c-1.7-0.3-2.4-0.8-2.6-1c-0.2-0.2-0.4-0.7-0.5-1.7c-0.3-2.3-0.5-8.8-0.5-19.2l-0.3-20c0-2,0.1-4.5,0.2-7.2c3.5-3.4,7.2-6.1,11-7.8    s7.7-2.6,11.7-2.6c5.1,0,9.2,1.5,12.3,4.3c3,2.9,4.6,8.2,4.6,15.8l-0.2,7.3v4.7c0.1,11,0.2,18.1,0.4,20.9c0.1,1.3,0.2,2.1,0.2,2.5    c0,0.9-0.3,2-1,3.3c-0.9,0.7-1.6,1.1-2.2,1.3c-0.6,0.2-1.8,0.4-3.5,0.5c-3,0.2-5.4,0.7-7.1,1.5l-0.1,0.1l-0.1,0.1    c-0.5,0.7-0.7,1.3-0.7,1.7l0.7,2.4h0.4c2.2,0.1,4.6,0.2,7,0.2c1.6,0,3.3,0,5.1-0.1l11.8-0.3l12,0.2h2.1l0.1-0.3    c0.4-1,0.6-1.8,0.6-2.5v-0.9l-0.1-0.1C117.5,116.2,115.7,115.1,107.8,114z" style="stroke-dasharray: 512, 516; stroke-dashoffset: 0;" stroke="#FFFFFF" fill="#FFFFFF" stroke-width="0.4px"></path>
		<path class="st0" d="M130.1,111.6c-1.1-1.2-2.5-1.8-4.1-1.8s-3.1,0.6-4.3,1.9c-1.2,1.2-1.8,2.7-1.8,4.4c0,1.7,0.6,3.2,1.8,4.4    s2.6,1.8,4.2,1.8c1.6,0,3-0.6,4.2-1.8c1.1-1.2,1.7-2.7,1.7-4.5C131.8,114.2,131.2,112.7,130.1,111.6z" style="stroke-dasharray: 39, 43; stroke-dashoffset: 0;" stroke="#FFFFFF" fill="#FFFFFF" stroke-width="0.4px"></path>
	</g>
</g>
</svg>